<svg width="200" height="26" viewBox="0 0 200 26" fill="none" xmlns="http://www.w3.org/2000/svg">
<path d="M43.1467 12.1135C45.2533 11.0241 46.8 9.1824 46.8 6.7182C46.8 2.43827 43.4133 0 37.4933 0H26.32V25.2127H38.4C44.2133 25.2127 47.8133 22.4891 47.8133 18.0795C47.76 15.1224 45.76 13.177 43.1467 12.1135ZM37.5733 11.1538H30.6133V2.07512H37.1733C40.8533 2.07512 42.4267 3.47582 42.4267 6.7182C42.4267 9.85682 40.9867 11.1538 37.5733 11.1538ZM30.6133 23.1116V13.2548H37.4933C39.68 13.2548 43.3333 13.9033 43.3333 18.1573C43.3333 21.6331 41.76 23.1116 38.0267 23.1116H30.6133ZM0 14.4221C0 8.40423 4.72 3.5277 10.5333 3.5277C16.3467 3.5277 21.0667 8.40423 21.0667 14.4221C21.0667 20.4399 16.3467 25.3165 10.5333 25.3165C4.72 25.3165 0 20.4399 0 14.4221ZM4.08 14.4221C4.08 19.9211 6.48 23.2154 10.5333 23.2154C14.56 23.2154 16.96 19.9211 16.96 14.4221C16.96 8.92301 14.5867 5.62876 10.5333 5.62876C6.48 5.62876 4.08 8.92301 4.08 14.4221ZM51.4133 14.4221C51.4133 8.40423 56.1333 3.5277 61.9467 3.5277C67.76 3.5277 72.48 8.40423 72.48 14.4221C72.48 20.4399 67.76 25.3165 61.9467 25.3165C56.1333 25.3165 51.4133 20.4399 51.4133 14.4221ZM55.4933 14.4221C55.4933 19.9211 57.8933 23.2154 61.9467 23.2154C65.9733 23.2154 68.3733 19.9211 68.3733 14.4221C68.3733 8.92301 65.9733 5.62876 61.9467 5.62876C57.92 5.62876 55.4933 8.92301 55.4933 14.4221ZM81.0933 5.88815H73.3867V3.81303H92.72V5.88815H84.9867V25.0311H81.0933V5.88815ZM100.533 3.81303H96.64V25.0052H100.533V3.81303ZM115.387 23.1635C117.12 23.1635 120.213 22.6447 121.547 19.0652L121.92 18.0276L123.813 18.9355L123.493 19.7655C122.187 23.2413 119.173 25.2386 115.227 25.2386C109.28 25.2386 104.827 20.5696 104.827 14.3961C104.827 8.22266 109.387 3.50176 115.227 3.50176C119.147 3.50176 122.16 5.525 123.44 9.02677L123.733 9.85682L121.84 10.8166L121.467 9.779C120.507 7.15916 118.293 5.6547 115.36 5.6547C111.307 5.6547 108.88 8.92301 108.88 14.3961C108.88 19.8693 111.333 23.1635 115.387 23.1635ZM164.8 21.1662L163.68 17.9498C163.227 16.7566 162.373 15.7709 161.253 15.1224C163.28 14.2405 165.04 12.5804 165.04 9.93463C165.04 6.09566 161.893 3.81303 156.613 3.81303H148.667V25.0052H152.587V15.9784H156C158.507 15.9784 159.307 16.9641 160 18.8836L161.093 21.9444C161.36 22.8782 161.787 23.7601 162.32 24.5902L162.613 25.0052H167.867L166 23.3192C165.44 22.6966 165.013 21.9703 164.8 21.1662ZM152.587 5.86221H156.347C159.627 5.86221 161.04 7.08134 161.04 9.93463C161.04 12.7879 159.6 13.9033 156.373 13.9033H152.587V5.86221ZM170.747 3.78709H174.667V24.9792H170.773L170.747 3.78709ZM189.467 3.50176C183.653 3.50176 178.933 8.37829 178.933 14.3961C178.933 20.414 183.68 25.2905 189.467 25.2905C195.253 25.2905 200 20.4399 200 14.4221C200 8.40423 195.28 3.5277 189.467 3.50176ZM189.467 5.57688C193.493 5.57688 195.893 8.87113 195.893 14.3702C195.893 19.8693 193.493 23.1635 189.467 23.1635C185.44 23.1635 183.013 19.8952 183.013 14.3961C183.013 8.89707 185.44 5.60282 189.467 5.57688ZM135.627 0.440963H137.92L136.133 4.53932L145.467 25.0052H141.333L138.053 17.7941H130.347L127.147 24.9792H124.853L135.627 0.440963ZM134.08 9.1824L131.227 15.719H137.067L134.08 9.1824Z" fill="black"/>
</svg>
