<svg width="200" height="36" viewBox="0 0 200 36" fill="none" xmlns="http://www.w3.org/2000/svg">
<path d="M133.094 35.1265C137.621 32.1936 142.032 29.3361 146.445 26.4768C150.857 23.6175 155.268 20.7582 159.758 17.8479C159.586 17.7063 159.465 17.5836 159.324 17.4968C153.901 14.1449 148.475 10.7949 143.046 7.45238C142.015 6.81635 140.953 6.25392 139.726 6.01423C137.729 5.62355 134.64 6.51815 134.093 9.71531C133.983 10.3608 133.921 11.0232 133.919 11.6781C133.906 16.6154 133.916 21.5546 133.91 26.4919C133.91 27.881 133.686 29.2361 133.218 30.5497C132.323 33.0599 130.576 34.6641 127.918 35.2473C125.209 35.8437 122.631 35.4719 120.235 34.0771C118.901 33.3014 117.744 32.3087 116.709 31.1819C114.626 28.9171 112.548 26.6485 110.468 24.3818C107.744 21.4131 105.023 18.4443 102.297 15.4793C100.3 13.3069 98.2967 11.1421 96.2954 8.97358C95.6284 8.25073 94.9709 7.51844 94.2769 6.82201C93.9915 6.53702 93.6445 6.27846 93.2763 6.1086C92.2718 5.64431 91.115 6.11426 90.7719 7.14286C90.6157 7.60903 90.5656 8.12805 90.5656 8.62254C90.5521 14.9753 90.5521 21.33 90.5617 27.6828C90.5617 28.8869 90.4094 30.0533 89.9968 31.1952C89.1562 33.5128 87.4404 34.8207 85.042 35.3152C83.5478 35.6248 82.0479 35.5832 80.573 35.1642C78.9921 34.7151 77.6406 33.8978 76.6207 32.6239C75.3926 31.0914 74.2088 29.5267 73.0038 27.9772C72.7918 27.7036 72.5623 27.4412 72.3715 27.211C71.4788 27.0449 55.1741 27.0581 54.3239 27.2355C54.295 29.8325 54.3297 32.4578 54.3046 35.1189H48.0176C47.9944 34.9396 47.9463 34.7339 47.9463 34.5282C47.9424 25.5652 47.9328 16.6003 47.952 7.63734C47.9559 6.08217 48.3106 4.57796 49.1339 3.22851C50.3041 1.3072 52.1126 0.31634 54.3374 0.0917464C55.284 -0.0026207 56.275 0.0143654 57.2101 0.180452C59.3404 0.559807 60.9214 1.84698 62.1957 3.48141C65.3672 7.55241 68.5002 11.6517 71.6485 15.7397C74.9723 20.0523 78.2942 24.3668 81.6237 28.6756C81.8127 28.9209 82.0344 29.1682 82.2947 29.3305C83.0678 29.8117 83.8736 29.5079 84.0992 28.6397C84.1995 28.2528 84.186 27.83 84.186 27.4242C84.1898 21.0714 84.1821 14.7168 84.1956 8.36397C84.1995 6.77483 84.5446 5.24985 85.3447 3.84945C86.7097 1.46007 88.8381 0.263495 91.5893 0.0483376C94.7184 -0.19513 97.3192 0.954262 99.4727 3.06997C101.148 4.71574 102.698 6.48229 104.291 8.20732C105.712 9.74551 107.111 11.3007 108.524 12.8426C111.268 15.836 114.013 18.8274 116.765 21.8132C118.268 23.4476 119.784 25.0707 121.295 26.6976C121.877 27.3242 122.44 27.9735 123.057 28.5661C123.638 29.1247 124.324 29.5249 125.184 29.5343C126.184 29.5456 127.025 29.0228 127.316 28.0867C127.472 27.5866 127.536 27.0392 127.538 26.5127C127.553 21.4168 127.551 16.3229 127.546 11.2271C127.544 9.45108 127.831 7.7336 128.508 6.08029C129.869 2.75479 132.448 0.910853 135.971 0.257833C139.983 -0.485781 143.677 0.414482 147.091 2.50188C152.503 5.81228 157.894 9.15665 163.294 12.4859C164.267 13.0861 165.247 13.6768 166.272 14.3016C173.433 9.66246 180.572 5.03847 187.665 0.44468C189.408 0.308791 197.771 0.359749 198.564 0.527723C189.689 6.27846 180.875 11.9896 171.927 17.7875C176.652 20.7431 181.295 23.5703 185.916 26.4315C190.547 29.3003 195.192 32.1464 200 35.1057H187.91C180.514 30.5478 173.026 25.9351 165.488 21.2885C158.347 25.9125 151.236 30.5176 144.128 35.1227H133.104L133.094 35.1265ZM54.3104 21.4791C55.6716 21.632 67.2335 21.5905 67.9391 21.4357C67.783 21.2206 67.6422 21.0129 67.4899 20.8148C66.5645 19.6125 65.6352 18.4141 64.7098 17.2118C62.0107 13.7052 59.3154 10.1966 56.6124 6.69367C56.4427 6.47285 56.2364 6.2577 56.0012 6.11237C55.3939 5.74056 54.7616 5.92741 54.5129 6.58043C54.3721 6.95035 54.3201 7.37312 54.3181 7.77323C54.3046 12.1066 54.3104 16.4399 54.3104 20.7733C54.3104 20.9903 54.3104 21.2073 54.3104 21.4772V21.4791Z" fill="#0F1629"/>
<path d="M18.5488 0.393721C18.784 0.393721 19.0327 0.393721 19.2795 0.393721C23.4863 0.393721 27.6912 0.397496 31.898 0.391834C33.7816 0.388059 35.5996 0.691922 37.304 1.49027C40.3925 2.93975 41.9831 5.37253 42.1528 8.70936C42.3108 11.8254 40.9806 14.2261 38.4569 16.0492C38.2024 16.2323 37.946 16.4135 37.597 16.6607C37.8997 16.8268 38.1291 16.9627 38.3682 17.0854C40.1747 18.0064 41.6746 19.2294 42.5576 21.0809C42.9953 22.0019 43.244 22.9645 43.3037 23.9761C43.431 26.1239 43.0377 28.1546 41.9272 30.0344C40.5526 32.3578 38.4723 33.7865 35.9023 34.5622C34.4911 34.9887 33.0297 35.168 31.5432 35.1642C27.5292 35.151 23.5172 35.1605 19.5032 35.1605H18.5643C18.4081 34.3848 18.3907 1.37514 18.5488 0.395609V0.393721ZM24.8937 29.2285C25.262 29.2455 25.5145 29.272 25.7671 29.2663C27.4965 29.2323 29.2278 29.187 30.9571 29.1568C31.9655 29.1398 32.9275 28.9077 33.851 28.5434C35.3876 27.9376 36.3728 26.8429 36.6793 25.2312C36.9241 23.9421 36.5559 22.1453 34.8632 21.1941C33.9512 20.6827 32.9583 20.4071 31.9481 20.3165C29.6191 20.1108 27.2786 20.2561 24.8937 20.2184V29.2285ZM24.8744 14.6016C26.4708 14.6016 27.9765 14.6224 29.4803 14.5922C30.2129 14.579 30.9533 14.5261 31.6705 14.3959C32.9198 14.1713 34.038 13.6768 34.9268 12.7313C36.3168 11.2516 36.2339 8.13371 33.8606 7.02962C32.9198 6.59176 31.9404 6.3313 30.9109 6.31054C29.0215 6.27468 27.1301 6.28789 25.2388 6.28789C25.1212 6.28789 25.0055 6.33696 24.8744 6.36716V14.6016Z" fill="#0F1629"/>
<path d="M0 0.448454H13.4205V6.19164C12.7033 6.38603 11.9379 6.25958 11.186 6.28034C10.384 6.30299 9.58 6.28601 8.77604 6.28601H6.47985C6.29862 6.98432 6.24657 12.9634 6.40659 14.5752C8.49456 14.6564 10.6018 14.5563 12.7573 14.6299V20.1504C12.0921 20.3222 11.3884 20.2033 10.6963 20.224C9.99065 20.2467 9.28309 20.2297 8.57553 20.2297H6.47792C6.30248 20.928 6.25621 27.8961 6.41044 29.1625C7.13728 29.3927 7.90846 29.2455 8.66229 29.2682C9.46432 29.2946 10.2683 29.2738 11.0722 29.2738C11.8762 29.2738 12.5972 29.2738 13.4128 29.2738V35.1133H0V0.448454Z" fill="#0F1629"/>
</svg>
